<svg id="loader" xmlns="http://www.w3.org/2000/svg" viewBox="-118 404 150 150" height="50" width="50"><style>.st0, .st1 { fill:#000000; -webkit-animation-name: pulse; -webkit-animation-duration: 2s; -webkit-animation-iteration-count: infinite; -webkit-animation-direction: alternate; -webkit-animation-timing-function: ease-out; animation-name: pulse; animation-duration: 2s; animation-iteration-count: infinite; animation-direction: normal; animation-timing-function: ease-out; transform-origin: center; } .st1 { opacity:0; -webkit-animation-delay: 1s; animation-delay: 1s; } @-webkit-keyframes pulse { 0% {opacity:1; transform: scale(0);} 100% {opacity:0; transform: scale(1);} } @keyframes pulse { 0% {opacity:1; transform: scale(0);} 100% {opacity:0; transform: scale(1);} }</style><path class="st0" d="M-43 431.5c-26.2 0-47.5 21.3-47.5 47.5s21.3 47.5 47.5 47.5S4.5 505.2 4.5 479s-21.3-47.5-47.5-47.5zm0 85.7c-21.1 0-38.2-17.1-38.2-38.2s17.1-38.2 38.2-38.2S-4.8 457.9-4.8 479s-17.1 38.2-38.2 38.2z"/><path class="st1" d="M-43 431.5c-26.2 0-47.5 21.3-47.5 47.5s21.3 47.5 47.5 47.5S4.5 505.2 4.5 479s-21.3-47.5-47.5-47.5zm0 85.7c-21.1 0-38.2-17.1-38.2-38.2s17.1-38.2 38.2-38.2S-4.8 457.9-4.8 479s-17.1 38.2-38.2 38.2z"/></svg>