<?xml version="1.0" encoding="utf-8"?>
<!-- Generator: Adobe Illustrator 18.0.0, SVG Export Plug-In . SVG Version: 6.00 Build 0)  -->
<!DOCTYPE svg PUBLIC "-//W3C//DTD SVG 1.1//EN" "http://www.w3.org/Graphics/SVG/1.1/DTD/svg11.dtd">
<svg version="1.1" id="Livello_1" xmlns="http://www.w3.org/2000/svg" xmlns:xlink="http://www.w3.org/1999/xlink" x="0px" y="0px"
	 viewBox="0 0 1000 348.8" enable-background="new 0 0 1000 348.8" xml:space="preserve">
<g>
	<g>
		<g>
			<g>
				<g>
					<path fill-rule="evenodd" clip-rule="evenodd" fill="#04529C" d="M72.8,60.8h2.6c8.9,0,11.9,9.4,11.9,21.3
						c0,13.9-4.1,20.2-13.2,20.2h-1.3V60.8z M24.2,16.7v215h48.5V152h0.7c12.5,0,19.2,26.3,20.8,79.7h50.4
						c-2.2-41-9.5-76.5-21.2-103c8-11,12.3-27.4,12.3-47.6c0-24-6.7-45.9-17.8-55.8c-8.2-7.2-15.4-8.6-45.2-8.6H24.2z"/>
				</g>
			</g>
			<g>
				<g>
					<rect x="156.4" y="16.7" fill-rule="evenodd" clip-rule="evenodd" fill="#04529C" width="48.7" height="215"/>
				</g>
			</g>
			<g>
				<g>
					<path fill-rule="evenodd" clip-rule="evenodd" fill="#04529C" d="M363.7,42.4c-15.2-18.2-34.9-29.2-52.7-29.2
						c-40.5,0-61.3,50.9-61.3,109.6c0,38.7,9.1,112.3,65.8,112.3c14.8,0,37.3-1.7,45.5-2.6V116.2h-48.5V150
						c-12.2,0-17.5-8.7-17.5-26.6c0-18.4,7.1-30.3,18.6-30.3c8,0,17.3,4.9,26.6,14L363.7,42.4z"/>
				</g>
			</g>
			<g>
				<g>
					<path fill-rule="evenodd" clip-rule="evenodd" fill="#04529C" d="M374.6,123.9c0,62.4,24.7,111.2,56.3,111.2
						c31.6,0,56.3-48.7,56.3-111.2c0-62.2-24.7-110.8-56.3-110.8C399.3,13.2,374.6,61.9,374.6,123.9z M419.8,118.2
						c0-13,4.6-22.5,10.8-22.5c6.5,0,11.3,9.5,11.3,22.5c0,13-4.8,22.6-11.1,22.6C424.4,140.8,419.8,131.2,419.8,118.2z"/>
				</g>
			</g>
			<g>
				<g>
					<polygon fill-rule="evenodd" clip-rule="evenodd" fill="#04529C" points="504.3,231.7 552.8,231.7 552.8,123.9 553.3,123.9 
						571.3,165.6 589.3,123.9 589.7,123.9 589.7,231.7 638.2,231.7 638.2,16.7 591.4,16.7 571.3,61.4 551.3,16.7 504.3,16.7 					
						"/>
				</g>
			</g>
			<g>
				<g>
					<polygon fill-rule="evenodd" clip-rule="evenodd" fill="#04529C" points="685.4,231.7 734,231.7 734,123.9 734.5,123.9 
						752.4,165.6 770.4,123.9 770.8,123.9 770.8,231.7 819.3,231.7 819.3,16.7 772.6,16.7 752.4,61.4 732.4,16.7 685.4,16.7 					
						"/>
				</g>
			</g>
			<g>
				<g>
					<path fill-rule="evenodd" clip-rule="evenodd" fill="#04529C" d="M878.6,231.7L885,195h35.8l6.5,36.7h48.5l-38.2-215h-69.5
						l-38.1,215H878.6z M911.9,144.5h-18l8.7-52.6h0.4L911.9,144.5z"/>
				</g>
			</g>
		</g>
		<g>
			<g>
				<path fill-rule="evenodd" clip-rule="evenodd" fill="#F6A806" d="M185.7,140l50.4-51.6c10.5-10.7,26.5-11.7,35.6-2.4l0,0
					c9.1,9.4,8.1,25.7-2.3,36.4L219,174c-10.5,10.6-26.4,11.8-35.6,2.3l0,0C174.2,166.9,175.2,150.7,185.7,140z"/>
			</g>
		</g>
		<g>
			<g>
				<path fill-rule="evenodd" clip-rule="evenodd" fill="#F6A806" d="M619.3,140l50.4-51.6c10.5-10.7,26.4-11.7,35.6-2.4l0,0
					c9.2,9.4,8.2,25.7-2.3,36.4L652.6,174c-10.5,10.6-26.4,11.8-35.6,2.3l0,0C607.8,166.9,608.9,150.7,619.3,140z"/>
			</g>
		</g>
	</g>
	<g>
		<g>
			<defs>
				<path id="SVGID_45_" d="M517.7,282.6l-29.3,29.3c-4,4-4,10.7,0,14.7l1.6,1.6c4,4,10.6,4,14.7,0l29.3-29.3c4-4,4-10.7,0-14.7
					l-1.6-1.5c-2-2-4.7-3-7.3-3C522.4,279.6,519.7,280.6,517.7,282.6"/>
			</defs>
			<use xlink:href="#SVGID_45_"  overflow="visible" fill="#F6A806"/>
			<clipPath id="SVGID_1_">
				<use xlink:href="#SVGID_45_"  overflow="visible"/>
			</clipPath>
			
				<rect x="473.6" y="268.3" transform="matrix(-0.7071 -0.7071 0.7071 -0.7071 656.3653 883.6299)" clip-path="url(#SVGID_1_)" fill="#F6A806" width="75.1" height="75.1"/>
		</g>
		<g>
			<defs>
				<rect id="SVGID_47_" x="24.2" y="275.1" width="13.5" height="59.7"/>
			</defs>
			<use xlink:href="#SVGID_47_"  overflow="visible" fill="#04529C"/>
			<clipPath id="SVGID_2_">
				<use xlink:href="#SVGID_47_"  overflow="visible"/>
			</clipPath>
			<rect x="24.2" y="275.1" clip-path="url(#SVGID_2_)" fill="#04529C" width="13.5" height="59.7"/>
		</g>
		<g>
			<defs>
				<path id="SVGID_49_" d="M47.1,289.6c0,14.5,18.6,21.1,18.6,29.8c0,2.9-2.3,5-5.5,5c-3.6,0-6.9-1.7-12.6-6.3v12.9
					c5.6,3.3,10,4.7,14.6,4.7c9.9,0,17.3-7.2,17.3-16.7c0-14.2-19.3-22.8-19.3-29.9c0-2.4,2.3-4.1,5.5-4.1c3,0,5.6,1,11.5,4.3V278
					c-4.6-2.5-8.7-3.7-13-3.7C54.6,274.3,47.1,281,47.1,289.6"/>
			</defs>
			<use xlink:href="#SVGID_49_"  overflow="visible" fill="#04529C"/>
			<clipPath id="SVGID_3_">
				<use xlink:href="#SVGID_49_"  overflow="visible"/>
			</clipPath>
			<rect x="47.1" y="274.3" clip-path="url(#SVGID_3_)" fill="#04529C" width="32.4" height="61.3"/>
		</g>
		<g>
			<defs>
				<path id="SVGID_51_" d="M102.3,285.5h4.4c5.9,0,7.5,3.8,7.5,7.4c0,4.4-1.7,7.3-8,7.3h-3.9V285.5z M88.7,275.1v59.7h13.5v-24.3
					h5.7c16.6,0,19.8-11,19.8-17.5c0-8.5-5.8-17.9-19.7-17.9H88.7z"/>
			</defs>
			<use xlink:href="#SVGID_51_"  overflow="visible" fill="#04529C"/>
			<clipPath id="SVGID_4_">
				<use xlink:href="#SVGID_51_"  overflow="visible"/>
			</clipPath>
			<rect x="88.7" y="275.1" clip-path="url(#SVGID_4_)" fill="#04529C" width="39" height="59.7"/>
		</g>
		<g>
			<defs>
				<rect id="SVGID_53_" x="136.3" y="275.1" width="13.5" height="59.7"/>
			</defs>
			<use xlink:href="#SVGID_53_"  overflow="visible" fill="#04529C"/>
			<clipPath id="SVGID_5_">
				<use xlink:href="#SVGID_53_"  overflow="visible"/>
			</clipPath>
			<rect x="136.3" y="275.1" clip-path="url(#SVGID_5_)" fill="#04529C" width="13.5" height="59.7"/>
		</g>
		<g>
			<defs>
				<path id="SVGID_55_" d="M175.2,285.5h4.1c5,0,7.5,2,7.5,6.7c0,4.7-2.8,7.2-7.3,7.2h-4.3V285.5z M161.6,275.1v59.7h13.6v-25.2
					c5.7,0,6.6,1,10.3,14l3.2,11.2h14.1c-5.1-12.7-7.2-26-12.5-29c7.1-3,10.1-7.3,10.1-14c0-9.8-7-16.7-19.2-16.7H161.6z"/>
			</defs>
			<use xlink:href="#SVGID_55_"  overflow="visible" fill="#04529C"/>
			<clipPath id="SVGID_6_">
				<use xlink:href="#SVGID_55_"  overflow="visible"/>
			</clipPath>
			<rect x="161.6" y="275.1" clip-path="url(#SVGID_6_)" fill="#04529C" width="41.2" height="59.7"/>
		</g>
		<g>
			<defs>
				<path id="SVGID_57_" d="M227.3,291h0.2l4.6,21.7h-9.5L227.3,291z M220.3,274.8l-15.6,60h13.1l2.9-12.4h13.5l2.8,12.4H250
					l-15.6-60H220.3z"/>
			</defs>
			<use xlink:href="#SVGID_57_"  overflow="visible" fill="#04529C"/>
			<clipPath id="SVGID_7_">
				<use xlink:href="#SVGID_57_"  overflow="visible"/>
			</clipPath>
			<rect x="204.6" y="274.8" clip-path="url(#SVGID_7_)" fill="#04529C" width="45.4" height="60"/>
		</g>
		<g>
			<defs>
				<polygon id="SVGID_59_" points="269.6,275.1 269.6,285.5 283.2,285.5 283.2,334.8 296.8,334.8 296.8,285.5 310.4,285.5 
					310.4,275.1 				"/>
			</defs>
			<use xlink:href="#SVGID_59_"  overflow="visible" fill="#04529C"/>
			<clipPath id="SVGID_8_">
				<use xlink:href="#SVGID_59_"  overflow="visible"/>
			</clipPath>
			<rect x="269.6" y="275.1" clip-path="url(#SVGID_8_)" fill="#04529C" width="40.8" height="59.7"/>
		</g>
		<g>
			<defs>
				<path id="SVGID_61_" d="M345.2,275.1v40.4c0,5.4-2.1,8.8-7.3,8.8c-4.8,0-7.3-3.4-7.3-8.1v-41.1H317v39.4
					c0,14.9,8.5,21.1,20.9,21.1c14.2,0,20.9-8.1,20.9-21.3v-39.2H345.2z"/>
			</defs>
			<use xlink:href="#SVGID_61_"  overflow="visible" fill="#04529C"/>
			<clipPath id="SVGID_9_">
				<use xlink:href="#SVGID_61_"  overflow="visible"/>
			</clipPath>
			<rect x="317" y="275.1" clip-path="url(#SVGID_9_)" fill="#04529C" width="41.8" height="60.5"/>
		</g>
		<g>
			<defs>
				<polygon id="SVGID_63_" points="365.2,275.1 365.2,285.5 378.8,285.5 378.8,334.8 392.4,334.8 392.4,285.5 406,285.5 406,275.1 
									"/>
			</defs>
			<use xlink:href="#SVGID_63_"  overflow="visible" fill="#04529C"/>
			<clipPath id="SVGID_10_">
				<use xlink:href="#SVGID_63_"  overflow="visible"/>
			</clipPath>
			<rect x="365.2" y="275.1" clip-path="url(#SVGID_10_)" fill="#04529C" width="40.8" height="59.7"/>
		</g>
		<g>
			<defs>
				<polygon id="SVGID_65_" points="408.9,275.1 408.9,285.5 422.5,285.5 422.5,334.8 436.1,334.8 436.1,285.5 449.7,285.5 
					449.7,275.1 				"/>
			</defs>
			<use xlink:href="#SVGID_65_"  overflow="visible" fill="#04529C"/>
			<clipPath id="SVGID_11_">
				<use xlink:href="#SVGID_65_"  overflow="visible"/>
			</clipPath>
			<rect x="408.9" y="275.1" clip-path="url(#SVGID_11_)" fill="#04529C" width="40.8" height="59.7"/>
		</g>
		<g>
			<defs>
				<rect id="SVGID_67_" x="457.1" y="275.1" width="13.6" height="59.7"/>
			</defs>
			<use xlink:href="#SVGID_67_"  overflow="visible" fill="#04529C"/>
			<clipPath id="SVGID_12_">
				<use xlink:href="#SVGID_67_"  overflow="visible"/>
			</clipPath>
			<rect x="457.1" y="275.1" clip-path="url(#SVGID_12_)" fill="#04529C" width="13.6" height="59.7"/>
		</g>
		<g>
			<defs>
				<path id="SVGID_69_" d="M556.2,289.4c0,14.5,18.6,21.1,18.6,29.8c0,2.9-2.3,5-5.5,5c-3.6,0-6.9-1.7-12.6-6.3v12.9
					c5.6,3.3,10,4.7,14.6,4.7c9.9,0,17.3-7.2,17.3-16.7c0-14.2-19.3-22.8-19.3-29.9c0-2.4,2.3-4.1,5.5-4.1c3,0,5.6,1,11.5,4.3v-11.2
					c-4.6-2.5-8.7-3.7-13-3.7C563.6,274.2,556.2,280.8,556.2,289.4"/>
			</defs>
			<use xlink:href="#SVGID_69_"  overflow="visible" fill="#04529C"/>
			<clipPath id="SVGID_13_">
				<use xlink:href="#SVGID_69_"  overflow="visible"/>
			</clipPath>
			<rect x="556.2" y="274.2" clip-path="url(#SVGID_13_)" fill="#04529C" width="32.4" height="61.3"/>
		</g>
		<g>
			<defs>
				<polygon id="SVGID_71_" points="597.8,275 597.8,334.7 633.4,334.7 633.4,324.3 611.4,324.3 611.4,309.5 631.1,309.5 
					631.1,299.2 611.4,299.2 611.4,285.3 632.6,285.3 632.6,275 				"/>
			</defs>
			<use xlink:href="#SVGID_71_"  overflow="visible" fill="#04529C"/>
			<clipPath id="SVGID_14_">
				<use xlink:href="#SVGID_71_"  overflow="visible"/>
			</clipPath>
			<rect x="597.8" y="275" clip-path="url(#SVGID_14_)" fill="#04529C" width="35.6" height="59.7"/>
		</g>
		<g>
			<defs>
				<path id="SVGID_73_" d="M655.9,285.3h4.1c5,0,7.5,2,7.5,6.7c0,4.7-2.8,7.2-7.3,7.2h-4.3V285.3z M642.4,275v59.7h13.6v-25.2
					c5.7,0,6.6,1,10.3,14l3.2,11.2h14.1c-5.1-12.7-7.2-26-12.5-29c7.1-3,10-7.3,10-14c0-9.8-7-16.7-19.2-16.7H642.4z"/>
			</defs>
			<use xlink:href="#SVGID_73_"  overflow="visible" fill="#04529C"/>
			<clipPath id="SVGID_15_">
				<use xlink:href="#SVGID_73_"  overflow="visible"/>
			</clipPath>
			<rect x="642.4" y="275" clip-path="url(#SVGID_15_)" fill="#04529C" width="41.2" height="59.7"/>
		</g>
		<g>
			<defs>
				<polygon id="SVGID_75_" points="714.9,275 706.3,305.7 706.1,305.7 696.9,275 683.2,275 703.2,335.4 709.5,335.4 728.7,275 				
					"/>
			</defs>
			<use xlink:href="#SVGID_75_"  overflow="visible" fill="#04529C"/>
			<clipPath id="SVGID_16_">
				<use xlink:href="#SVGID_75_"  overflow="visible"/>
			</clipPath>
			<rect x="683.2" y="275" clip-path="url(#SVGID_16_)" fill="#04529C" width="45.4" height="60.5"/>
		</g>
		<g>
			<defs>
				<rect id="SVGID_77_" x="736" y="275" width="13.5" height="59.7"/>
			</defs>
			<use xlink:href="#SVGID_77_"  overflow="visible" fill="#04529C"/>
			<clipPath id="SVGID_17_">
				<use xlink:href="#SVGID_77_"  overflow="visible"/>
			</clipPath>
			<rect x="736" y="275" clip-path="url(#SVGID_17_)" fill="#04529C" width="13.5" height="59.7"/>
		</g>
		<g>
			<defs>
				<polygon id="SVGID_79_" points="774.7,275 774.7,285.3 788.3,285.3 788.3,334.7 801.8,334.7 801.8,285.3 815.5,285.3 815.5,275 
									"/>
			</defs>
			<use xlink:href="#SVGID_79_"  overflow="visible" fill="#04529C"/>
			<clipPath id="SVGID_18_">
				<use xlink:href="#SVGID_79_"  overflow="visible"/>
			</clipPath>
			<rect x="774.7" y="275" clip-path="url(#SVGID_18_)" fill="#04529C" width="40.8" height="59.7"/>
		</g>
		<g>
			<defs>
				<path id="SVGID_81_" d="M850.3,275v40.4c0,5.4-2.1,8.8-7.3,8.8c-4.8,0-7.3-3.4-7.3-8.1V275H822v39.4c0,14.9,8.5,21.1,20.9,21.1
					c14.2,0,20.9-8.1,20.9-21.2V275H850.3z"/>
			</defs>
			<use xlink:href="#SVGID_81_"  overflow="visible" fill="#04529C"/>
			<clipPath id="SVGID_19_">
				<use xlink:href="#SVGID_81_"  overflow="visible"/>
			</clipPath>
			<rect x="822" y="275" clip-path="url(#SVGID_19_)" fill="#04529C" width="41.8" height="60.5"/>
		</g>
		<g>
			<defs>
				<polygon id="SVGID_83_" points="870.3,275 870.3,285.3 883.9,285.3 883.9,334.7 897.5,334.7 897.5,285.3 911.1,285.3 911.1,275 
									"/>
			</defs>
			<use xlink:href="#SVGID_83_"  overflow="visible" fill="#04529C"/>
			<clipPath id="SVGID_20_">
				<use xlink:href="#SVGID_83_"  overflow="visible"/>
			</clipPath>
			<rect x="870.3" y="275" clip-path="url(#SVGID_20_)" fill="#04529C" width="40.8" height="59.7"/>
		</g>
		<g>
			<defs>
				<polygon id="SVGID_85_" points="914,275 914,285.3 927.6,285.3 927.6,334.7 941.1,334.7 941.1,285.3 954.8,285.3 954.8,275 				
					"/>
			</defs>
			<use xlink:href="#SVGID_85_"  overflow="visible" fill="#04529C"/>
			<clipPath id="SVGID_21_">
				<use xlink:href="#SVGID_85_"  overflow="visible"/>
			</clipPath>
			<rect x="914" y="275" clip-path="url(#SVGID_21_)" fill="#04529C" width="40.8" height="59.7"/>
		</g>
		<g>
			<defs>
				<rect id="SVGID_87_" x="962.2" y="275" width="13.5" height="59.7"/>
			</defs>
			<use xlink:href="#SVGID_87_"  overflow="visible" fill="#04529C"/>
			<clipPath id="SVGID_22_">
				<use xlink:href="#SVGID_87_"  overflow="visible"/>
			</clipPath>
			<rect x="962.2" y="275" clip-path="url(#SVGID_22_)" fill="#04529C" width="13.5" height="59.7"/>
		</g>
	</g>
</g>
</svg>
