<?xml version="1.0" standalone="no"?>
<!DOCTYPE svg PUBLIC "-//W3C//DTD SVG 20010904//EN"
 "http://www.w3.org/TR/2001/REC-SVG-20010904/DTD/svg10.dtd">
<svg version="1.0" xmlns="http://www.w3.org/2000/svg"
 width="795.000000pt" height="200.000000pt" viewBox="0 0 795.000000 200.000000"
 preserveAspectRatio="xMidYMid meet">
<metadata>
Created by potrace 1.14, written by Peter Selinger 2001-2017
</metadata>
<g transform="translate(0.000000,200.000000) scale(0.100000,-0.100000)"
fill="#000000" stroke="none">
<path d="M631 1673 c-27 -54 -104 -204 -170 -333 -66 -129 -146 -285 -178
-347 l-57 -112 209 -310 209 -311 128 0 c70 0 128 2 128 5 0 3 -72 113 -160
245 -88 132 -160 244 -160 250 0 11 1637 11 4877 1 l1893 -6 -161 -240 c-89
-132 -163 -243 -166 -248 -2 -4 56 -7 129 -7 l134 0 208 311 208 311 -97 192
c-54 105 -110 214 -125 241 -15 28 -74 141 -130 253 l-104 202 -133 0 -134 0
117 -227 c64 -126 156 -305 205 -399 49 -94 89 -177 89 -183 0 -8 -895 -11
-3430 -11 -1886 0 -3430 3 -3430 6 0 4 35 74 79 158 171 329 331 643 331 650
0 3 -58 6 -130 6 l-130 0 -49 -97z"/>
<path d="M4155 1750 c-107 -17 -201 -68 -247 -137 -75 -107 -60 -175 45 -208
114 -36 137 -46 137 -64 0 -61 -141 -84 -156 -26 -6 24 -9 25 -95 25 l-88 0
-7 -35 c-19 -106 62 -165 209 -151 135 12 242 69 303 160 75 113 51 167 -96
214 -69 22 -86 31 -88 49 -4 29 27 45 81 41 35 -2 43 -7 45 -25 3 -22 8 -23
92 -23 97 0 100 2 100 75 0 81 -100 126 -235 105z"/>
<path d="M5490 1750 c-224 -39 -434 -274 -418 -468 4 -46 10 -60 36 -83 70
-63 224 -61 345 4 68 36 153 110 180 156 l18 31 -90 0 c-81 0 -91 -2 -101 -20
-20 -37 -90 -80 -131 -80 -75 0 -88 52 -39 151 39 77 94 137 147 161 69 31
122 3 107 -57 l-6 -25 90 0 c100 0 97 -2 108 78 8 62 -13 105 -64 131 -45 22
-122 31 -182 21z"/>
<path d="M1305 1670 c-19 -38 -35 -72 -35 -75 0 -3 36 -5 80 -5 44 0 80 -1 80
-3 0 -1 -45 -94 -100 -206 -55 -111 -100 -204 -100 -207 0 -2 40 -4 90 -4 l90
0 105 210 105 210 85 0 85 0 35 70 c19 38 35 72 35 75 0 3 -117 5 -260 5
l-260 0 -35 -70z"/>
<path d="M1813 1456 l-142 -286 92 0 93 0 49 100 49 100 49 0 c53 0 87 -13 87
-34 0 -7 -13 -43 -30 -79 -16 -37 -30 -71 -30 -77 0 -6 37 -10 96 -10 81 0 95
2 90 15 -3 8 10 47 29 87 41 85 45 129 13 150 -21 14 -21 15 25 37 77 37 141
131 135 199 -2 29 -10 40 -38 57 -31 18 -55 20 -230 23 l-195 4 -142 -286z
m387 136 c18 -15 21 -22 12 -38 -23 -43 -50 -57 -122 -62 -38 -2 -70 -1 -70 3
0 4 14 32 31 61 30 54 31 54 79 54 31 0 55 -6 70 -18z"/>
<path d="M2571 1458 l-241 -283 88 -3 87 -3 28 36 29 35 94 0 95 0 -7 -35 -6
-35 91 0 c105 0 91 -19 115 155 9 61 25 169 36 240 29 193 37 175 -74 175
l-94 0 -241 -282z"/>
<path d="M3140 1460 c-77 -154 -140 -282 -140 -285 0 -3 40 -5 89 -5 l88 0 69
145 c37 80 71 145 74 145 3 0 14 -51 24 -112 9 -62 20 -128 23 -145 l5 -33 87
0 86 0 140 276 c77 152 142 280 143 285 2 5 -37 9 -86 9 l-90 0 -50 -102 c-28
-57 -60 -125 -72 -152 -11 -27 -23 -47 -25 -44 -3 2 -14 70 -26 151 l-22 147
-89 0 -88 0 -140 -280z"/>
<path d="M5799 1464 c-74 -151 -135 -280 -137 -285 -2 -5 102 -9 255 -9 l259
0 32 65 32 65 -165 0 c-99 0 -165 4 -165 10 0 5 8 25 18 44 l17 35 154 3 154
3 35 63 34 62 -151 0 c-83 0 -151 2 -151 5 0 3 9 24 20 45 l20 40 163 0 163 0
32 65 32 65 -258 0 -259 0 -134 -276z"/>
<path d="M6440 1460 c-77 -154 -140 -282 -140 -285 0 -3 99 -5 219 -5 l220 0
30 60 c17 33 31 63 31 65 0 3 -56 5 -125 5 -69 0 -125 2 -125 5 0 2 47 99 105
214 58 115 105 212 105 215 0 3 -40 6 -90 6 l-90 0 -140 -280z"/>
<path d="M4622 1518 c-5 -7 -21 -37 -36 -65 l-26 -53 127 0 128 0 33 56 c17
31 32 60 32 65 0 15 -246 11 -258 -3z"/>
<path d="M2467 579 c-61 -14 -114 -46 -136 -82 -39 -64 -23 -91 67 -118 48
-14 55 -35 16 -50 -31 -11 -60 -4 -68 16 -8 22 -102 21 -110 -1 -11 -28 -6
-44 19 -69 62 -62 252 -7 301 87 24 47 7 74 -60 93 -31 9 -59 21 -62 27 -15
24 55 39 74 16 7 -8 29 -12 61 -10 48 4 51 6 51 30 0 38 -11 51 -51 62 -39 11
-50 11 -102 -1z"/>
<path d="M3169 576 c-126 -34 -229 -144 -229 -244 0 -60 26 -77 114 -77 84 1
136 24 204 89 102 97 114 211 24 236 -45 12 -55 12 -113 -4z m51 -81 c18 -22
-5 -80 -52 -127 -32 -32 -45 -39 -71 -36 -27 3 -32 7 -35 33 -4 37 30 90 77
122 39 27 64 29 81 8z"/>
<path d="M5075 581 c-42 -11 -107 -45 -144 -77 -47 -40 -91 -121 -91 -170 0
-62 25 -79 114 -79 82 1 133 22 193 83 l38 37 -53 3 c-45 3 -58 -1 -84 -23
-38 -32 -91 -32 -96 1 -4 28 56 114 95 137 38 22 70 15 75 -16 3 -19 8 -21 53
-18 54 3 65 12 65 52 0 53 -86 90 -165 70z"/>
<path d="M1271 546 c-30 -48 -27 -56 23 -56 l45 0 -64 -115 -63 -115 56 0 57
1 63 114 63 114 52 3 c49 3 53 5 75 46 l23 42 -154 0 -155 0 -21 -34z"/>
<path d="M1560 428 c-47 -84 -86 -156 -88 -160 -2 -4 21 -8 51 -8 l55 0 31 55
c28 50 34 55 65 55 46 0 51 -11 26 -59 -11 -22 -20 -43 -20 -46 0 -3 24 -5 53
-5 l52 1 23 47 c25 52 29 92 10 92 -7 0 1 9 18 19 44 27 86 85 82 113 -4 33
-54 47 -173 47 l-101 1 -84 -152z"/>
<path d="M2050 513 c-35 -38 -104 -110 -153 -160 l-90 -93 59 0 c48 0 61 4 72
20 10 16 23 20 67 20 48 0 55 -2 55 -20 0 -18 7 -20 53 -20 l54 0 27 153 c14
83 26 155 26 160 0 4 -24 7 -53 7 -53 0 -54 -1 -117 -67z"/>
<path d="M2669 488 c-28 -51 -63 -113 -77 -138 -14 -25 -32 -55 -40 -67 -14
-23 -14 -23 44 -23 l59 0 27 50 28 50 58 0 c108 0 212 78 212 159 0 45 -41 61
-164 61 l-94 0 -53 -92z"/>
<path d="M3447 559 c-15 -24 -133 -234 -156 -276 -11 -23 -11 -23 44 -23 l55
0 31 55 c28 50 34 55 64 55 45 0 50 -12 25 -59 -11 -22 -20 -43 -20 -46 0 -3
24 -5 53 -5 l52 1 30 59 c21 44 26 63 18 71 -8 8 2 24 38 58 52 50 63 87 33
112 -10 8 -56 14 -134 17 -115 4 -118 4 -133 -19z"/>
<path d="M3780 540 c-11 -21 -20 -41 -20 -44 0 -3 20 -6 45 -8 l44 -3 -59
-105 c-33 -58 -59 -108 -60 -112 0 -5 24 -8 53 -8 l52 0 65 115 64 115 51 0
c54 0 53 -1 93 83 2 4 -66 7 -152 7 l-156 0 -20 -40z"/>
<path d="M4116 492 c-27 -48 -67 -120 -89 -160 l-39 -73 57 3 57 3 84 150 c46
83 84 153 84 158 0 4 -24 7 -52 7 l-53 0 -49 -88z"/>
<path d="M5291 482 c-30 -53 -70 -125 -89 -159 l-33 -63 143 0 144 0 17 35 17
35 -85 0 -85 0 12 25 c10 23 16 25 82 25 68 0 72 1 89 29 27 47 23 52 -43 48
-33 -2 -62 -2 -65 1 -2 3 0 13 6 23 8 16 22 19 93 19 l84 0 21 36 c12 19 21
37 21 40 0 2 -62 4 -137 4 l-138 0 -54 -98z"/>
<path d="M5676 558 c-14 -23 -133 -235 -155 -275 l-12 -23 134 0 133 0 17 35
17 35 -76 0 -76 0 25 43 c13 23 45 79 70 125 l46 82 -54 0 c-46 0 -57 -4 -69
-22z"/>
<path d="M5916 425 c-47 -85 -86 -157 -86 -160 0 -3 63 -5 139 -5 l139 0 21
35 20 35 -84 0 c-47 0 -85 3 -85 6 0 3 5 14 10 25 9 16 22 19 80 19 69 0 71 1
90 33 11 17 20 36 20 40 0 5 -26 8 -57 7 -77 -2 -75 -3 -63 20 9 18 21 20 94
20 l82 0 23 40 22 40 -139 0 -140 0 -86 -155z"/>
<path d="M6333 569 c-9 -12 -124 -215 -162 -286 -11 -23 -11 -23 44 -23 l55 0
31 55 c28 50 34 55 64 55 45 0 50 -12 25 -59 -11 -22 -20 -43 -20 -46 0 -3 24
-5 53 -5 l52 0 29 62 c26 55 27 62 13 73 -14 10 -11 13 16 28 35 20 77 76 77
106 0 36 -27 45 -149 49 -90 3 -119 1 -128 -9z"/>
<path d="M6649 468 c-34 -62 -75 -134 -90 -160 l-29 -48 58 0 57 0 85 152 c47
84 87 156 88 160 2 4 -21 8 -51 8 l-55 0 -63 -112z"/>
</g>
</svg>
